<svg xmlns="http://www.w3.org/2000/svg" version="1.1" xmlns:xlink="http://www.w3.org/1999/xlink" viewBox="0 0 700 700" style="overflow: hidden; display: block;" width="700" height="700"><defs><linearGradient id="two-521" x1="350" y1="-350" x2="350" y2="350" spreadMethod="pad" gradientUnits="userSpaceOnUse"><stop offset="0%" stop-color="hsl(305, 77%, 50%)" stop-opacity="1"></stop><stop offset="100%" stop-color="hsl(305, 77%, 80%)" stop-opacity="1"></stop></linearGradient></defs><g id="two-0" transform="matrix(1 0 0 1 0 0)" opacity="1"><path transform="matrix(1 0 0 1 350 350)" id="two-1319" d="M 217.755142 90.197133 C 204.743599 119.131564 190.704683 148.654187 177.50182 177.50182 C 159.443129 216.95921 165.124474 286.355722 123.113568 297.222447 C 74.1434 309.889285 50.410593 210.072632 0 205.913518 C -40.010826 202.612435 -68.528537 267.070495 -108.271464 261.390434 C -143.655477 256.33335 -157.8173 207.650194 -186.973073 186.973072 C -222.639173 161.67886 -286.722186 166.06804 -304.724328 126.220949 C -322.404885 87.085673 -294.134366 37.415486 -273.057049 0 C -254.776767 -32.450322 -204.50179 -44.58493 -193.664059 -80.21828 C -179.935105 -125.357679 -248.579672 -182.617519 -220.625856 -220.625856 C -196.335377 -253.653214 -136.875119 -224.360944 -97.179296 -234.611574 C -63.571668 -243.290053 -34.620079 -277.351632 -0.000001 -274.853859 C 34.981906 -272.329981 59.83685 -235.930658 91.340856 -220.516335 C 120.888424 -206.059261 163.117515 -209.442713 184.152457 -184.152458 C 205.622095 -158.33957 190.943989 -115.429368 203.389091 -84.246521 C 215.623486 -53.591629 254.725492 -32.905661 257.298485 -0.000001 C 259.832016 32.400987 231.084323 60.556356 217.755142 90.197133 Z " fill="hsl(305, 87%, 80%)" stroke="undefined" stroke-width="1" stroke-opacity="1" fill-opacity="1" visibility="visible" stroke-linecap="butt" stroke-linejoin="miter" stroke-miterlimit="4"></path></g></svg>